<?xml version="1.0" encoding="UTF-8"?>
<svg width="21px" height="21px" viewBox="0 0 21 21" version="1.1" xmlns="http://www.w3.org/2000/svg" xmlns:xlink="http://www.w3.org/1999/xlink">
    <title>icons8-cost</title>
    <g id="Symbols" stroke="none" stroke-width="1" fill="none" fill-rule="evenodd">
        <g id="Menu" transform="translate(-177.000000, -18.000000)" fill="#8C9791" fill-rule="nonzero">
            <g id="Group-3" transform="translate(143.000000, 18.000000)">
                <g id="icons8-cost" transform="translate(34.000000, 0.000000)">
                    <path d="M0.7875,0 C0.3528,0 0,0.3528 0,0.7875 L0,16.0125 C0,17.6043 1.2957,18.9 2.8875,18.9 L9.47358405,18.9 C9.16225905,18.41385 8.91027532,17.885175 8.72915032,17.325 L2.8875,17.325 C2.163525,17.325 1.575,16.736475 1.575,16.0125 L1.575,1.575 L17.325,1.575 L17.325,8.72915032 C17.885175,8.91027532 18.41385,9.16173405 18.9,9.47358405 L18.9,0.7875 C18.9,0.3528 18.5472,0 18.1125,0 L0.7875,0 Z M7.6125,3.675 C7.32849922,3.67098352 7.06433593,3.82019555 6.92116342,4.06549987 C6.77799091,4.31080419 6.77799091,4.61419581 6.92116342,4.85950013 C7.06433593,5.10480445 7.32849922,5.25401648 7.6125,5.25 L11.2875,5.25 C11.5715008,5.25401648 11.8356641,5.10480445 11.9788366,4.85950013 C12.1220091,4.61419581 12.1220091,4.31080419 11.9788366,4.06549987 C11.8356641,3.82019555 11.5715008,3.67098352 11.2875,3.675 L7.6125,3.675 Z M15.225,9.45 C12.035625,9.45 9.45,12.035625 9.45,15.225 C9.45,18.414375 12.035625,21 15.225,21 C18.414375,21 21,18.414375 21,15.225 C21,12.035625 18.414375,9.45 15.225,9.45 Z M15.225,11.025 C15.515325,11.025 15.75,11.2602 15.75,11.55 L15.75,12.0832031 C16.5606,12.1241531 17.0776431,12.5868913 17.2409181,12.8399413 C17.3984181,13.0835413 17.3286587,13.4089431 17.0850587,13.5659181 C16.8409337,13.7218431 16.5155319,13.6536587 16.3590819,13.4100587 C16.3575069,13.4100587 16.1312072,13.125 15.6382322,13.125 L14.83125,13.125 C14.397075,13.125 14.04375,13.478325 14.04375,13.9125 C14.04375,14.346675 14.397075,14.7 14.83125,14.7 L15.75,14.7 C16.76325,14.7 17.5875,15.52425 17.5875,16.5375 C17.5875,17.55075 16.76325,18.375 15.75,18.375 L15.75,18.9 C15.75,19.1898 15.515325,19.425 15.225,19.425 C14.934675,19.425 14.7,19.1898 14.7,18.9 L14.7,18.3729493 C14.0469,18.3682243 13.4494337,18.1293163 13.0163087,17.6961913 C12.8110337,17.4909163 12.8110337,17.160109 13.0163087,16.954834 C13.2215837,16.749559 13.5534163,16.749559 13.7586913,16.954834 C13.9277413,17.123359 14.2317572,17.325 14.7194822,17.325 L15.75,17.325 C16.184175,17.325 16.5375,16.971675 16.5375,16.5375 C16.5375,16.103325 16.184175,15.75 15.75,15.75 L14.83125,15.75 C13.818,15.75 12.99375,14.92575 12.99375,13.9125 C12.99375,12.9444 13.749225,12.1571053 14.7,12.0883303 L14.7,11.55 C14.7,11.2602 14.934675,11.025 15.225,11.025 Z" id="Shape"></path>
                </g>
            </g>
        </g>
    </g>
</svg>