<?xml version="1.0" encoding="UTF-8"?>
<svg width="19px" height="22px" viewBox="0 0 19 22" version="1.1" xmlns="http://www.w3.org/2000/svg" xmlns:xlink="http://www.w3.org/1999/xlink">
    <title>icons8-home (1)</title>
    <g id="Symbols" stroke="none" stroke-width="1" fill="none" fill-rule="evenodd">
        <g id="Menu" transform="translate(-26.000000, -18.000000)" fill="#8C9791" fill-rule="nonzero">
            <g id="Group-2" transform="translate(0.000000, 18.293974)">
                <g id="icons8-home-(1)" transform="translate(26.000000, 0.000000)">
                    <path d="M9.47422967,0.000390833103 C9.30542335,0.00627207895 9.14288443,0.0670749919 9.01036261,0.173915234 L1.50911458,6.20309978 C0.557057411,6.96857968 0,8.13828107 0,9.37491574 L0,19.6538712 C0,20.3881005 0.599769728,21 1.31944444,21 L6.59722222,21 C7.31689683,21 7.91666667,20.3881005 7.91666667,19.6538712 L7.91666667,14.269356 C7.91666667,14.1104886 8.02483736,14.0001303 8.18055556,14.0001303 L10.8194444,14.0001303 C10.9751626,14.0001303 11.0833333,14.1104886 11.0833333,14.269356 L11.0833333,19.6538712 C11.0833333,20.3881005 11.6831032,21 12.4027778,21 L17.6805556,21 C18.4002302,21 19,20.3881005 19,19.6538712 L19,9.37491574 C19,8.13828107 18.4429427,6.96857968 17.4908854,6.20309978 L9.98963739,0.173915234 C9.84324004,0.0559271894 9.66070557,-0.00552742591 9.47422967,0.000390833103 Z M9.5,1.83659461 L16.5116101,7.47245723 C17.0837751,7.93249351 17.4166667,8.63220318 17.4166667,9.37491574 L17.4166667,19.3846454 L12.6666667,19.3846454 L12.6666667,14.269356 C12.6666667,13.2382456 11.8301151,12.3847757 10.8194444,12.3847757 L8.18055556,12.3847757 C7.16988486,12.3847757 6.33333333,13.2382456 6.33333333,14.269356 L6.33333333,19.3846454 L1.58333333,19.3846454 L1.58333333,9.37491574 C1.58333333,8.63220318 1.91622452,7.93249351 2.48838989,7.47245723 L9.5,1.83659461 Z" id="Shape"></path>
                </g>
            </g>
        </g>
    </g>
</svg>