<?xml version="1.0" encoding="UTF-8"?>
<svg width="30px" height="30px" viewBox="0 0 30 30" version="1.1" xmlns="http://www.w3.org/2000/svg" xmlns:xlink="http://www.w3.org/1999/xlink">
    <title>Group 10</title>
    <defs>
        <polygon id="path-1" points="0 0 30 0 30 30.0003103 0 30.0003103"></polygon>
    </defs>
    <g id="Admin-Dashboard" stroke="none" stroke-width="1" fill="none" fill-rule="evenodd">
        <g id="1.-Admin-Dashboard" transform="translate(-28.000000, -24.000000)">
            <g id="Group-10" transform="translate(28.000000, 24.000000)">
                <g id="Group-3">
                    <mask id="mask-2" fill="white">
                        <use xlink:href="#path-1"></use>
                    </mask>
                    <g id="Clip-2"></g>
                    <path d="M25.6255883,30.0007241 L4.37472199,30.0007241 C1.95822859,30.0007241 0,28.0414611 0,25.6260021 L0,4.37410131 C0,1.95864238 1.95822859,-0.000620674673 4.37472199,-0.000620674673 L25.6255883,-0.000620674673 C28.0420817,-0.000620674673 30.0003103,1.95864238 30.0003103,4.37410131 L30.0003103,25.6260021 C30.0003103,28.0414611 28.0420817,30.0007241 25.6255883,30.0007241" id="Fill-1" fill="#0041C4" mask="url(#mask-2)"></path>
                </g>
                <polygon id="Fill-4" fill="#FEFEFE" points="8.39038368 21.8524036 3.93807736 21.8524036 7.32178878 8.89168192 11.7740951 8.89168192"></polygon>
                <polygon id="Fill-6" fill="#F83759" points="12.0397439 7.79329464 7.58640309 7.79329464 8.33328161 4.7923326 12.7855879 4.7923326"></polygon>
                <path d="M22.0352957,16.7467337 C21.1746268,18.2363529 19.4832883,18.8725445 18.2584903,18.1639409 C17.0326578,17.4574062 16.7368029,15.6750354 17.5974718,14.1843818 C18.4581407,12.6937281 20.1494792,12.0596055 21.3742772,12.7661401 C22.6001097,13.4747437 22.8949301,15.25608 22.0352957,16.7467337 M23.473192,9.44966846 C21.8915061,8.70072102 20.0584469,8.94071522 18.486071,9.91517446 L18.7581334,8.89106125 L14.3058271,8.89106125 L9.98386246,25.2085984 L14.4361688,25.2085984 L15.8668239,19.8076943 C16.3395711,20.5245735 16.9747282,21.1100767 17.7671229,21.4855848 C20.5001603,22.780726 23.9914554,21.1359381 25.5669346,17.8122252 C27.1424138,14.4885123 26.2041606,10.7448096 23.473192,9.44966846" id="Fill-8" fill="#FEFEFE"></path>
            </g>
        </g>
    </g>
</svg>