<?xml version="1.0" encoding="UTF-8"?>
<svg width="118px" height="118px" viewBox="0 0 118 118" version="1.1" xmlns="http://www.w3.org/2000/svg" xmlns:xlink="http://www.w3.org/1999/xlink">
    <title>Group</title>
    <g id="1.-CURRENT-PHASE" stroke="none" stroke-width="1" fill="none" fill-rule="evenodd">
        <g id="3.4" transform="translate(-129.000000, -108.000000)">
            <g id="Group" transform="translate(129.000000, 108.000000)">
                <circle id="Oval" fill="#FF5454" opacity="0.08" cx="59.5" cy="59.5" r="50.5"></circle>
                <g id="Untitled-1" fill="#FF5454" opacity="0.08">
                    <circle id="Oval" cx="59" cy="59" r="59"></circle>
                </g>
                <g id="Untitled-1-Copy" fill="#FF5454" opacity="0.08">
                    <circle id="Oval" cx="59" cy="59" r="59"></circle>
                </g>
                <g id="Untitled-1" transform="translate(17.000000, 17.000000)" fill="#FF5454" opacity="0.08">
                    <circle id="Oval" cx="42" cy="42" r="42"></circle>
                </g>
                <path d="M60.7447177,58.9888239 L74.9783339,45.5128117 C75.5534295,44.9963095 75.5534295,44.1041694 75.0262585,43.5407124 L75.0262585,43.5407124 C74.4990876,42.9772554 73.5885195,42.9772554 73.0134239,43.4937577 L58.6839585,57.0167246 L44.4503423,43.3998482 C43.8752467,42.8363912 42.9646787,42.883346 42.4375077,43.4468029 L42.4375077,43.4468029 C41.8624121,44.0102599 41.9103367,44.9024 42.4854323,45.4189023 L56.6711239,58.9418692 L42.4375077,72.4178813 C41.8624121,72.9343835 41.8624121,73.8265237 42.3895831,74.3899807 C42.916754,74.9534376 43.8273221,74.9534376 44.4024177,74.4369354 L58.7318831,60.9139685 L72.9654993,74.5308449 C73.5405949,75.0943019 74.4511629,75.0473471 74.9783339,74.4838902 L74.9783339,74.4838902 C75.5534295,73.9204332 75.5055049,73.028293 74.9304093,72.5117908 L60.7447177,58.9888239 Z" id="Shape" fill="#E92727" fill-rule="nonzero"></path>
            </g>
        </g>
    </g>
</svg>