<?xml version="1.0" encoding="UTF-8" standalone="no"?>
<!-- Generator: Adobe Illustrator 26.3.1, SVG Export Plug-In . SVG Version: 6.00 Build 0)  -->
<svg
   version="1.1"
   id="Layer_1"
   x="0px"
   y="0px"
   viewBox="0 0 120.00001 83.648994"
   xml:space="preserve"
   sodipodi:docname="logo iPayment.svg"
   width="120"
   height="83.648994"
   inkscape:version="1.2.1 (9c6d41e, 2022-07-14)"
   xmlns:inkscape="http://www.inkscape.org/namespaces/inkscape"
   xmlns:sodipodi="http://sodipodi.sourceforge.net/DTD/sodipodi-0.dtd"
   xmlns="http://www.w3.org/2000/svg"
   xmlns:svg="http://www.w3.org/2000/svg"><defs
   id="defs186" /><sodipodi:namedview
   id="namedview184"
   pagecolor="#ffffffff"
   bordercolor="#000000"
   borderopacity="0.25"/>
<style>
   #logo-tl {
      opacity: 1;
      animation: fade 0.5s infinite;
   }
   #logo-tm {
      opacity: 1;
      animation: fade1 0.5s infinite;
   }
   #logo-mr {
      opacity: 1;
      animation: fade2 0.5s infinite;
   }
   #logo-bm {
      opacity: 1;
      animation: fade3 0.5s infinite;
   }
   #logo-ml {
      opacity: 1;
      animation: fade4 0.5s infinite;
   }
   #logo-mm {
      opacity: 1;
      animation: fade5 1s infinite;
   }
   @keyframes fade {
      0% { opacity: 1 }
      25% { opacity: 1 }
      50% { opacity: 1 }
      75% { opacity: 0 }
      100% { opacity: 0 }
   }
   @keyframes fade1 {
      0% { opacity: 0 }
      25% { opacity: 1 }
      50% { opacity: 1 }
      75% { opacity: 1 }
      100% { opacity: 0 }
   }
   @keyframes fade2 {
      0% { opacity: 0 }
      25% { opacity: 0 }
      50% { opacity: 1 }
      75% { opacity: 1 }
      100% { opacity: 1 }
   }
   @keyframes fade3 {
      0% { opacity: 1 }
      25% { opacity: 0 }
      50% { opacity: 0 }
      75% { opacity: 1 }
      100% { opacity: 1 }
   }
   @keyframes fade4 {
      0% { opacity: 1 }
      25% { opacity: 1 }
      50% { opacity: 0 }
      75% { opacity: 0 }
      100% { opacity: 1 }
   }
   @keyframes fade5 {
      0% { opacity: 0.5 }
      25% { opacity: 1 }
      50% { opacity: 1 }
      75% { opacity: 0.5 }
      100% { opacity: 0 }
   }
</style>
<g
   id="logo-tl"
   transform="matrix(0.17039803,0,0,0.17039803,-6.9652752,-22.86912)"><path
     class="st1"
     fill="#CCCCCC"
     d="m 471.6,135.01 c 26.92,0 53.85,0 80.15,0 2.13,1.8 1.76,3.55 1.76,5.18 0.02,26.46 0.01,52.93 0.02,79.39 0,1.85 0.03,3.67 -1.08,5.27 -26.73,0 -53.45,0 -80.85,0 0,-30.4 0,-60.12 0,-89.84 z"
     id="path121" /><path
     class="st8"
     fill="#C8C8C8"
     d="m 471.6,135.01 c 0,29.72 0,59.44 0,89.84 27.4,0 54.12,0 80.85,0 -0.93,1.37 -2.37,0.97 -3.64,0.97 -24.92,0.02 -49.84,0.02 -74.77,0 -0.95,0 -1.91,-0.2 -3.1,-0.34 -0.13,-1.53 -0.33,-2.81 -0.33,-4.09 -0.02,-27.41 -0.02,-54.83 0.01,-82.24 0,-1.42 -0.54,-3.05 0.98,-4.14 z"
     id="path141" /></g>
<g
   id="logo-tm"
   transform="matrix(0.17039803,0,0,0.17039803,-6.9652752,-22.86912)"><path
     class="st5"
     fill="#F4C601"
     d="m 650.23,225.86 c -27.97,0 -55.67,0 -83.71,0 0,-30.54 0,-60.9 0,-91.65 27.72,0 55.55,0 83.71,0 0,30.35 0,60.7 0,91.65 z m -82.25,-89.64 c 0,29.69 0,58.97 0,88.18 26.98,0 53.47,0 80.04,0 0,-29.59 0,-58.75 0,-88.18 -26.77,0 -53.14,0 -80.04,0 z"
     id="path135" /><path
     class="st15"
     fill="#F5C909"
     d="m 567.98,136.22 c 26.9,0 53.27,0 80.04,0 0,29.43 0,58.59 0,88.18 -26.57,0 -53.06,0 -80.04,0 0,-29.22 0,-58.49 0,-88.18 z"
     id="path173" /></g>
<g
   id="logo-ml"
   transform="matrix(0.17039803,0,0,0.17039803,-6.9652752,-22.86912)"><path
     class="st3"
     fill="#F5C702"
     d="m 469.73,336.32 c 0,-30.09 0,-59.98 0,-90.2 28.12,0 56.1,0 84.41,0 0,30.03 0,59.89 0,90.2 -27.93,0 -55.91,0 -84.41,0 z m 2.2,-2.06 c 27.17,0 53.67,0 80.18,0 0,-28.95 0,-57.44 0,-86.08 -26.91,0 -53.4,0 -80.18,0 0,28.85 0,57.35 0,86.08 z"
     id="path131" /><path
     class="st15"
     fill="#F5C909"
     d="m 471.93,334.26 c 0,-28.73 0,-57.22 0,-86.08 26.78,0 53.27,0 80.18,0 0,28.64 0,57.13 0,86.08 -26.52,0 -53.01,0 -80.18,0 z"
     id="path169" /></g>
<g
   id="logo-mm"
   transform="matrix(0.17039803,0,0,0.17039803,-6.9652752,-22.86912)"><path
     class="st0"
     fill="#045B62"
     d="m 566.41,334.7 c 0,-28.96 0,-57.93 0,-86.89 26.99,0 53.99,0.01 80.98,0.01 0,28.96 0,57.92 0,86.88 -26.99,0 -53.98,0 -80.98,0 z"
     id="path125" /><path
     class="st7"
     fill="#004B52"
     d="m 647.39,334.7 c 0,-28.96 0,-57.92 0,-86.88 0.01,-0.62 0.01,-1.25 0.02,-1.87 2.92,0.06 1.82,2.32 1.83,3.68 0.06,27.76 0.06,55.52 0,83.28 0,1.35 1.09,3.62 -1.83,3.67 0,-0.62 -0.01,-1.25 -0.02,-1.88 z"
     id="path139" /><path
     class="st2"
     fill="#00545B"
     d="m 647.39,334.7 c 0.01,0.63 0.01,1.26 0.02,1.89 -26.07,0.06 -52.14,0.12 -78.21,0.15 -1.29,0 -3.34,0.66 -2.79,-2.03 27,-0.01 53.99,-0.01 80.98,-0.01 z"
     id="path143" /><path
     class="st9"
     fill="#005158"
     d="m 647.41,245.95 c -0.01,0.62 -0.01,1.24 -0.02,1.87 -26.99,0 -53.99,-0.01 -80.98,-0.01 -0.52,-2.71 1.55,-2 2.82,-2 26.07,0.02 52.12,0.09 78.18,0.14 z"
     id="path145" /></g>
<g
   id="logo-mr"
   transform="matrix(0.17039803,0,0,0.17039803,-6.9652752,-22.86912)"><path
     class="st4"
     fill="#F5C601"
     d="m 661.2,244.49 c 28.14,0 55.88,0 83.91,0 0,30.63 0,61.15 0,91.97 -27.92,0 -55.76,0 -83.91,0 0,-30.53 0,-61.03 0,-91.97 z m 1.46,89.73 c 27.05,0 53.67,0 80.2,0 0,-29.65 0,-58.8 0,-88.01 -26.94,0 -53.43,0 -80.2,0 0,29.44 0,58.48 0,88.01 z"
     id="path133" /><path
     class="st15"
     fill="#F5C909"
     d="m 662.66,334.22 c 0,-29.54 0,-58.57 0,-88.01 26.76,0 53.26,0 80.2,0 0,29.21 0,58.36 0,88.01 -26.53,0 -53.15,0 -80.2,0 z"
     id="path171" /></g>
<g
   id="logo-bm"
   transform="matrix(0.17039803,0,0,0.17039803,-6.9652752,-22.86912)"><path
     class="st1"
     fill="#CCCCCC"
     d="m 566.96,358.08 c 27.15,0 53.84,0 80.99,0 0,29.72 0,59.03 0,88.93 -26.92,0 -53.72,0 -80.99,0 0,-29.39 0,-59.01 0,-88.93 z"
     id="path123" /></g>
<g
   id="logo-card"
   transform="matrix(0.17039803,0,0,0.17039803,-6.9652752,-22.86912)"><path
     class="st0"
     fill="#045B62"
     d="m 546.52,405.62 c 0.06,23.61 0.14,47.22 0.16,70.82 0.03,28.43 0.05,56.87 0,85.3 -0.06,33.41 -28.37,62.4 -61.69,62.54 -56.7,0.23 -113.4,0.04 -170.11,0.03 0,-25.88 0,-51.76 0,-78.13 -11.39,0 -21.96,0 -32.68,0 -0.01,-4.55 -0.64,-8.63 0.39,-12.7 36.55,-3.57 62.2,-22.02 76.94,-54.5 14.04,0 27.72,0 41.39,0 0,13.31 0,25.87 0,38.26 -10.64,4.4 -16,11.89 -14.82,20.34 1.28,9.23 8.22,15.97 17.18,16.69 8.02,0.64 16.01,-4.59 18.69,-12.25 3.36,-9.6 -0.3,-17.11 -12.3,-24.85 0,-15.27 0,-30.7 0,-46.72 -15.75,0 -31.27,0 -47.41,0 2.25,-7.17 2.93,-13.9 3.87,-20.72 44.19,0 88.09,0 131.92,0 5.36,10.35 12.92,14.67 21.93,12.61 8.33,-1.91 14.27,-9.04 14.52,-17.46 0.26,-8.45 -5.19,-15.81 -13.37,-18.35 -7.46,-2.31 -18.3,-0.07 -23.95,13.89 -43.75,0 -87.44,0 -131.22,0 -0.55,-7.39 -1.99,-14.28 -3.79,-21.31 31.83,0 62.86,0 94.37,0 0,-4.2 0,-8.11 0,-12.52 2.27,0 4.05,0 5.83,0 25.3,0 50.6,-0.01 75.9,0.01 2.8,-0.01 5.59,0.08 8.25,-0.98 z"
     id="path113" /><path
     class="st0"
     fill="#045B62"
     d="m 41.27,334.71 c 0.34,-14.57 -2.05,-29.31 2.01,-43.66 8.08,-28.57 32.94,-47.12 62.97,-47.13 93.13,-0.02 186.27,-0.01 279.4,-0.01 22.62,0 45.24,-0.01 67.85,0.03 1.77,0 3.68,-0.6 5.27,0.79 -1.86,1.57 -1.1,3.72 -1.11,5.62 -0.05,28.12 -0.04,56.23 -0.04,84.35 -138.79,0 -277.57,0.01 -416.35,0.01 z"
     id="path115" /><path
     class="st0"
     fill="#045B62"
     d="m 242.84,624.29 c -47.75,0 -95.51,0.26 -143.26,-0.09 -25.03,-0.19 -50.48,-22.53 -56.78,-48.54 -1.14,-4.72 -1.72,-9.45 -1.72,-14.31 0.04,-50.75 0.02,-101.5 0.03,-152.25 0,-0.83 0.1,-1.66 0.16,-2.48 33.48,0 66.96,0.02 100.44,-0.02 1.76,0 3.68,0.6 5.23,-0.84 2.55,4.29 -0.29,9.3 1.83,14.09 15.17,-1.56 30.34,-0.85 46.26,-0.91 -2.76,7.54 -3.14,14.65 -4.44,21.59 -29.57,0 -58.81,0 -87.94,0 -4.18,-10.05 -12.53,-15.27 -21.48,-13.64 -9.15,1.67 -15.77,9.03 -16.04,17.83 -0.27,8.62 5.77,16.26 14.56,18.46 9.64,2.41 17.81,-2.27 23.24,-13.37 29.19,0 58.42,0 87.62,0 1.1,6.61 2.15,12.95 3.28,19.73 -14.94,-0.12 -29.67,0.35 -44.91,-0.7 0,12.17 0,23.73 0,35.54 -14.89,0 -29.27,0 -43.51,0 -5.51,-10.36 -13.26,-14.62 -22.16,-12.36 -8.61,2.19 -14.36,9.5 -14.27,18.17 0.09,8.77 6.4,16.33 15.08,18.06 9.28,1.85 16.55,-2.92 22.14,-14.67 16.79,-0.66 33.73,0.55 51.23,-0.78 0,-11.63 0,-23.01 0,-34.44 13.57,0 26.5,0 39.54,0 15.03,33.01 40.6,51.4 76.63,55.14 0.02,4.54 0.54,8.63 -0.41,13.09 -10.09,0 -20.01,0 -30.35,0 0,26.18 0,51.94 0,77.7 z"
     id="path117" /><path
     class="st1"
     fill="#CCCCCC"
     d="m 242.84,624.29 c 0,-25.76 0,-51.52 0,-77.7 10.35,0 20.26,0 30.35,0 0.95,-4.46 0.43,-8.55 0.41,-13.09 -36.03,-3.74 -61.59,-22.12 -76.63,-55.14 -13.04,0 -25.97,0 -39.54,0 0,11.44 0,22.82 0,34.44 -17.5,1.32 -34.44,0.12 -51.23,0.78 -5.59,11.75 -12.86,16.52 -22.14,14.67 -8.68,-1.73 -14.99,-9.29 -15.08,-18.06 -0.09,-8.67 5.66,-15.99 14.27,-18.17 8.89,-2.26 16.64,2 22.16,12.36 14.24,0 28.62,0 43.51,0 0,-11.81 0,-23.37 0,-35.54 15.24,1.05 29.96,0.58 44.91,0.7 -1.13,-6.79 -2.18,-13.12 -3.28,-19.73 -29.2,0 -58.43,0 -87.62,0 -5.44,11.1 -13.6,15.78 -23.24,13.37 -8.8,-2.2 -14.83,-9.84 -14.56,-18.46 0.27,-8.8 6.89,-16.16 16.04,-17.83 8.94,-1.63 17.29,3.59 21.48,13.64 29.13,0 58.37,0 87.94,0 1.3,-6.94 1.67,-14.05 4.44,-21.59 -15.92,0.07 -31.09,-0.65 -46.26,0.91 -2.12,-4.79 0.72,-9.79 -1.83,-14.09 -35.25,-0.01 -70.5,-0.02 -105.76,-0.04 1.51,-2.03 3.69,-1.07 5.55,-1.08 31.45,-0.07 62.9,-0.05 94.35,-0.05 1.99,0 3.97,0 6.43,0 0,-6.97 0,-13.64 0,-20.62 -14.25,0 -28.32,0 -42.41,0 -5.59,12.23 -13.29,15.31 -23.62,13.24 -8.81,-1.77 -14.31,-8.87 -14.4,-17.38 -0.09,-7.97 5.69,-15.83 13.25,-18.03 10.41,-3.03 17.13,0.53 25.03,13.71 16.5,0 33.41,0 50.76,0 1.72,9.72 0.06,19.02 1.07,28.63 14.25,0 28.46,0 43.39,0 16.94,-29.62 42.99,-47.01 77.73,-46.99 34.7,0.02 60.94,17.07 77.88,47.18 30.62,0 60.69,0 91.12,0 0,-7.64 0,-15.03 0,-22.33 -11.82,-6.45 -16.28,-13.27 -14.34,-21.77 2.08,-9.1 9.52,-15.41 18.32,-15.52 8.02,-0.11 15.21,5.41 17.64,13.53 2.71,9.08 -1.12,16.52 -12.03,23.1 0,7.46 0,15.03 0,22.51 2.13,1.21 4.17,0.72 6.11,0.73 25.96,0.04 51.91,0.01 77.87,0.06 1.89,0 4.03,-0.83 5.64,0.98 -2.67,1.06 -5.46,0.97 -8.26,0.97 -25.3,-0.02 -50.6,-0.01 -75.9,-0.01 -1.78,0 -3.57,0 -5.83,0 0,4.41 0,8.32 0,12.52 -31.52,0 -62.55,0 -94.37,0 1.81,7.04 3.24,13.92 3.79,21.31 43.77,0 87.47,0 131.22,0 5.65,-13.96 16.49,-16.2 23.95,-13.89 8.18,2.54 13.63,9.9 13.37,18.35 -0.26,8.42 -6.19,15.56 -14.52,17.46 -9,2.06 -16.57,-2.26 -21.93,-12.61 -43.83,0 -87.73,0 -131.92,0 -0.94,6.82 -1.62,13.55 -3.87,20.72 16.15,0 31.67,0 47.41,0 0,16.02 0,31.45 0,46.72 12,7.74 15.66,15.25 12.3,24.85 -2.68,7.66 -10.66,12.89 -18.69,12.25 -8.96,-0.72 -15.9,-7.45 -17.18,-16.69 -1.17,-8.45 4.18,-15.94 14.82,-20.34 0,-12.39 0,-24.95 0,-38.26 -13.68,0 -27.36,0 -41.39,0 -14.74,32.47 -40.39,50.93 -76.94,54.5 -1.03,4.08 -0.4,8.15 -0.39,12.7 10.73,0 21.29,0 32.68,0 0,26.36 0,52.25 0,78.13 -1.06,0 -2.12,0 -3.18,0 0,-24.86 0,-49.73 0,-74.51 -10.16,0 -19.71,0 -29.37,0 0,8.76 0,17.16 0,25.44 11.96,5.51 16.56,12.52 14.68,22.05 -1.66,8.43 -8.86,14.58 -17.57,15.02 -8.68,0.44 -16.67,-4.98 -19.18,-13.01 -2.99,-9.55 1.01,-16.81 13.05,-23.9 0,-8.66 0,-17.21 0,-25.65 -9.31,0 -18.22,0 -27.36,0 0,25.05 0,49.8 0,74.55 -1.02,0.39 -2.07,1.64 -3.1,0 z M 345.67,404.6 c -3.7,-7.75 -9.3,-13.94 -15.79,-19.43 -20.05,-17 -42.92,-23.11 -68.63,-17.38 -22.03,4.91 -38.9,17.14 -50.24,36.79 -2.14,0.52 -4.32,1.02 -3.08,4.09 -0.27,0.77 -0.47,1.58 -0.81,2.32 -9.56,20.83 -10.37,41.99 -2.2,63.4 12.58,32.97 47.83,54.38 82.03,49.96 37.51,-4.85 66.18,-33.84 70.01,-70.35 1.7,-16.21 -1.7,-31.32 -8.35,-45.93 -0.06,-1.94 0.82,-4.68 -2.94,-3.47 z m 101.91,2.14 c -30.22,0 -59.91,0 -89.6,0 -0.26,1.85 0.36,3.03 1.42,3.52 29.68,0 58.86,0 88.18,0 0,-1.22 0,-2.18 0,-3.52 z M 278.41,603.71 c 5.75,0 10.32,-4.29 10.41,-9.78 0.09,-5.31 -4.61,-10 -10.18,-10.15 -5.58,-0.15 -10.8,4.8 -10.74,10.18 0.06,5.32 4.84,9.75 10.51,9.75 z M 85.61,369.65 c -5.33,0.04 -10.03,4.65 -9.99,9.79 0.05,5.51 4.66,10.07 10.28,10.16 5.83,0.1 10.18,-4.13 10.21,-9.92 0.04,-6.14 -4.08,-10.08 -10.5,-10.03 z m -1.24,65.71 c -5.79,-0.1 -10.38,4.05 -10.57,9.56 -0.19,5.52 4.72,10.42 10.4,10.38 5.46,-0.05 10.34,-4.7 10.44,-9.96 0.1,-5.25 -4.67,-9.88 -10.27,-9.98 z m 319.99,110.23 c 5.59,0.12 10.23,-4.36 10.24,-9.89 0,-5.15 -4.61,-9.9 -9.76,-10.04 -5.34,-0.15 -10.22,4.67 -10.2,10.07 0.02,5.44 4.26,9.74 9.72,9.86 z M 97.31,510.2 c 0.09,-5.49 -4.12,-9.98 -9.53,-10.16 -5.44,-0.18 -10.4,4.6 -10.39,10 0.01,5.27 4.58,9.76 9.98,9.82 5.55,0.06 9.85,-4.12 9.94,-9.66 z M 506.4,444.27 c 0,5.64 4.06,9.96 9.47,10.07 5.42,0.11 10.06,-4.66 9.96,-10.25 -0.1,-5.48 -4.45,-9.74 -9.9,-9.7 -5.54,0.04 -9.53,4.17 -9.53,9.88 z m -64.82,-81.35 c -0.2,5.04 4.3,10.2 9.16,10.52 4.96,0.32 10.32,-4.63 10.65,-9.86 0.28,-4.45 -4.62,-9.74 -9.22,-9.95 -6.04,-0.28 -10.36,3.51 -10.59,9.29 z m -284.62,43.83 c -0.3,1.53 -0.69,2.68 0.56,3.59 13.37,0 26.78,0 40.12,0 1.01,-1.48 2.17,-2.67 1.73,-5.08 -13.98,2.44 -28.05,0.72 -42.41,1.49 z"
     id="path119" /><path
     class="st0"
     fill="#045B62"
     d="m 245.96,624.32 c 0,-24.75 0,-49.49 0,-74.55 9.14,0 18.05,0 27.36,0 0,8.43 0,16.99 0,25.65 -12.04,7.09 -16.04,14.34 -13.05,23.9 2.51,8.03 10.5,13.45 19.18,13.01 8.72,-0.44 15.91,-6.59 17.57,-15.02 1.88,-9.53 -2.73,-16.54 -14.68,-22.05 0,-8.28 0,-16.69 0,-25.44 9.66,0 19.21,0 29.37,0 0,24.78 0,49.64 0,74.51 -21.92,-0.01 -43.84,-0.01 -65.75,-0.01 z"
     id="path127" /><path
     class="st2"
     fill="#00545B"
     d="m 41.27,334.71 c 138.78,0 277.56,-0.01 416.35,-0.01 0,0.63 0.01,1.26 0.01,1.89 -1.66,0.06 -3.32,0.17 -4.98,0.17 -135.37,0.01 -270.73,0.02 -406.1,-0.1 -1.7,0 -4.85,2.15 -5.28,-1.95 z"
     id="path129" /><path
     class="st6"
     fill="#004E56"
     d="m 457.63,336.59 c 0,-0.63 -0.01,-1.26 -0.01,-1.89 0,-28.12 -0.01,-56.23 0.04,-84.35 0,-1.9 -0.75,-4.05 1.11,-5.62 1.52,0.91 0.79,2.4 0.79,3.6 0.05,28.09 0.06,56.18 -0.03,84.27 0,1.41 1.42,3.98 -1.9,3.99 z"
     id="path137" /><path
     class="st10"
     fill="#004A51"
     d="m 41.18,405.72 c 35.25,0.01 70.5,0.02 105.76,0.04 -1.55,1.44 -3.47,0.84 -5.23,0.84 -33.48,0.03 -66.96,0.02 -100.44,0.02 -0.16,-0.29 -0.19,-0.59 -0.09,-0.9 z"
     id="path147" /><path
     class="st0"
     fill="#045B62"
     d="m 348.62,408.06 c 6.65,14.6 10.05,29.71 8.35,45.93 -3.82,36.51 -32.5,65.5 -70.01,70.35 -34.21,4.42 -69.45,-16.99 -82.03,-49.96 -8.17,-21.41 -7.37,-42.57 2.2,-63.4 0.34,-0.74 0.54,-1.54 0.81,-2.32 0.96,-0.55 1.01,-2.09 2.55,-2.08 10.19,0.04 20.37,0.02 31.48,0.02 -8.58,8.92 -14.01,18.29 -15.9,29.65 2.89,0.91 5.37,1.74 8.3,1.16 3.05,-13.9 10.69,-24.44 22.99,-31.22 2.35,0.14 4.46,0.43 6.55,0.37 11.55,-0.36 23.16,-0.54 34.66,-0.38 15.04,0.21 30.1,-0.02 45.14,0.41 1.79,0.03 3.7,-0.44 4.91,1.47 z m -93.85,12.83 c 0,8.07 0.07,16.37 -0.02,24.66 -0.09,8.3 3.33,14.89 9.98,19.58 5.4,3.81 11.19,7.07 16.94,10.66 5.65,-3.56 11.23,-6.84 16.55,-10.5 4.81,-3.31 8.38,-7.9 9.12,-13.76 1.31,-10.35 0.32,-20.76 0.26,-30.63 -17.79,-7.07 -35.06,-7.47 -52.83,-0.01 z m 57.88,65.18 c 19.63,-14.63 25.11,-47.8 11.44,-66.93 -2.4,1.03 -4.8,2.07 -6.58,4.19 9.85,21.14 6.82,40.04 -9.9,56.66 1.69,2.04 3.25,3.92 5.04,6.08 z m -83.85,-22.1 c 6.72,23.3 36.86,40.42 59.03,33.67 -0.5,-2.49 -1,-5.01 -1.5,-7.46 -24.71,1.28 -34.96,-4.58 -50.5,-28.84 -2.19,0.82 -4.47,1.67 -7.03,2.63 z"
     id="path149" /><path
     class="st11"
     fill="#FEFEFE"
     d="m 211.01,404.58 c 11.33,-19.65 28.21,-31.88 50.24,-36.79 25.72,-5.73 48.58,0.38 68.63,17.38 6.49,5.5 12.09,11.69 15.79,19.44 -14.35,0 -28.7,0 -43.57,0 0.61,-1.52 0.96,-2.25 1.19,-3.02 0.22,-0.76 0.31,-1.55 0.52,-2.63 -1.39,-0.76 -2.62,-1.59 -3.97,-2.13 -15.09,-6.02 -30.82,-7.1 -44.64,1.35 -10.26,6.27 -20.37,6.55 -31.23,6.43 -4.32,-0.05 -8.64,-0.03 -12.96,-0.03 z"
     id="path151" /><path
     class="st1"
     fill="#CCCCCC"
     d="m 211.01,404.58 c 4.32,0.01 8.64,-0.02 12.96,0.03 10.86,0.12 20.97,-0.16 31.23,-6.43 13.82,-8.45 29.55,-7.37 44.64,-1.35 1.35,0.54 2.57,1.37 3.97,2.13 -0.21,1.08 -0.3,1.87 -0.52,2.63 -0.23,0.77 -0.58,1.5 -1.19,3.02 14.87,0 29.22,0 43.57,0 3.76,-1.21 2.87,1.53 2.94,3.46 -1.2,-1.91 -3.12,-1.44 -4.89,-1.49 -15.04,-0.42 -30.1,-0.2 -45.14,-0.41 -11.5,-0.16 -23.11,0.02 -34.66,0.38 -2.1,0.07 -4.2,-0.22 -6.55,-0.37 -12.3,6.78 -19.94,17.33 -22.99,31.22 -2.94,0.59 -5.41,-0.25 -8.3,-1.16 1.89,-11.35 7.32,-20.73 15.9,-29.65 -11.11,0 -21.3,0.02 -31.48,-0.02 -1.54,-0.01 -1.59,1.53 -2.55,2.08 -1.25,-3.06 0.92,-3.55 3.06,-4.07 z"
     id="path153" /><path
     class="st12"
     fill="#085D64"
     d="m 447.58,406.74 c 0,1.34 0,2.29 0,3.52 -29.32,0 -58.5,0 -88.18,0 -1.06,-0.49 -1.68,-1.67 -1.42,-3.52 29.69,0 59.37,0 89.6,0 z"
     id="path155" /><path
     class="st13"
     fill="#055B62"
     d="m 278.41,603.71 c -5.68,0 -10.45,-4.43 -10.51,-9.75 -0.06,-5.39 5.16,-10.34 10.74,-10.18 5.57,0.15 10.27,4.85 10.18,10.15 -0.09,5.48 -4.66,9.77 -10.41,9.78 z"
     id="path157" /><path
     class="st13"
     fill="#055B62"
     d="m 84.37,435.36 c 5.6,0.1 10.37,4.73 10.27,9.98 -0.1,5.26 -4.98,9.92 -10.44,9.96 -5.68,0.05 -10.59,-4.85 -10.4,-10.38 0.19,-5.51 4.78,-9.66 10.57,-9.56 z"
     id="path159" /><path
     class="st13"
     fill="#055B62"
     d="m 404.36,545.59 c -5.46,-0.12 -9.7,-4.43 -9.72,-9.87 -0.02,-5.4 4.86,-10.22 10.2,-10.07 5.15,0.14 9.76,4.89 9.76,10.04 -0.01,5.54 -4.65,10.03 -10.24,9.9 z"
     id="path161" /><path
     class="st13"
     fill="#055B62"
     d="m 97.31,510.2 c -0.09,5.54 -4.39,9.72 -9.93,9.66 -5.4,-0.06 -9.97,-4.55 -9.98,-9.82 -0.01,-5.4 4.95,-10.18 10.39,-10 5.4,0.18 9.61,4.67 9.52,10.16 z"
     id="path163" /><path
     class="st13"
     fill="#055B62"
     d="m 506.4,444.27 c 0,-5.71 3.98,-9.84 9.53,-9.88 5.45,-0.04 9.8,4.22 9.9,9.7 0.1,5.58 -4.53,10.35 -9.96,10.25 -5.4,-0.11 -9.47,-4.42 -9.47,-10.07 z"
     id="path165" /><path
     class="st14"
     fill="#095D64"
     d="m 156.96,406.75 c 14.37,-0.77 28.44,0.95 42.41,-1.49 0.44,2.4 -0.71,3.6 -1.73,5.08 -13.34,0 -26.75,0 -40.12,0 -1.26,-0.91 -0.87,-2.06 -0.56,-3.59 z"
     id="path167" /><path
     class="st16"
     fill="#F6CA0A"
     d="m 254.77,420.89 c 17.77,-7.45 35.04,-7.06 52.84,0.01 0.05,9.86 1.05,20.27 -0.26,30.63 -0.74,5.86 -4.31,10.45 -9.12,13.76 -5.32,3.66 -10.9,6.94 -16.55,10.5 -5.75,-3.59 -11.54,-6.86 -16.94,-10.66 -6.66,-4.69 -10.07,-11.27 -9.98,-19.58 0.08,-8.3 0.01,-16.59 0.01,-24.66 z m 48.91,3.27 c -14.55,-5.99 -32.88,-5.91 -44.65,0.02 -0.31,31.7 -3.3,32.08 22.92,46.47 4.7,-3.01 9.71,-5.95 14.41,-9.32 4.04,-2.9 6.97,-7.03 7.2,-12.05 0.41,-8.42 0.12,-16.88 0.12,-25.12 z"
     id="path175" /><path
     class="st17"
     fill="#CBCCCC"
     d="m 312.65,486.07 c -1.79,-2.16 -3.35,-4.05 -5.03,-6.08 16.72,-16.63 19.75,-35.52 9.9,-56.66 1.78,-2.12 4.18,-3.15 6.58,-4.19 13.66,19.13 8.18,52.3 -11.45,66.93 z"
     id="path177" /><path
     class="st17"
     fill="#CBCCCC"
     d="m 228.8,463.97 c 2.56,-0.96 4.84,-1.82 7.03,-2.64 15.54,24.27 25.79,30.12 50.5,28.84 0.49,2.46 1,4.97 1.5,7.46 -22.17,6.76 -52.31,-10.35 -59.03,-33.66 z"
     id="path179" /><path
     class="st0"
     fill="#045B62"
     d="m 303.68,424.16 c 0,8.24 0.29,16.7 -0.11,25.13 -0.24,5.02 -3.16,9.14 -7.2,12.05 -4.7,3.37 -9.71,6.31 -14.41,9.32 -26.22,-14.4 -23.23,-14.77 -22.92,-46.47 11.75,-5.94 30.09,-6.03 44.64,-0.03 z"
     id="path181" /></g>
</svg>
